<mxfile host="app.diagrams.net" agent="Mozilla/5.0 (X11; Linux x86_64) AppleWebKit/537.36 (KHTML, like Gecko) Chrome/129.0.0.0 Safari/537.36" version="24.8.3">
  <diagram name="Page-1" id="2YBvvXClWsGukQMizWep">
    <mxGraphModel dx="1430" dy="523" grid="1" gridSize="10" guides="1" tooltips="1" connect="1" arrows="1" fold="1" page="1" pageScale="1" pageWidth="850" pageHeight="1100" math="0" shadow="0">
      <root>
        <mxCell id="0" />
        <mxCell id="1" parent="0" />
        <mxCell id="aM9ryv3xv72pqoxQDRHE-1" value=":Provider" style="shape=umlLifeline;perimeter=lifelinePerimeter;whiteSpace=wrap;html=1;container=0;dropTarget=0;collapsible=0;recursiveResize=0;outlineConnect=0;portConstraint=eastwest;newEdgeStyle={&quot;edgeStyle&quot;:&quot;elbowEdgeStyle&quot;,&quot;elbow&quot;:&quot;vertical&quot;,&quot;curved&quot;:0,&quot;rounded&quot;:0};" parent="1" vertex="1">
          <mxGeometry x="240" y="40" width="120" height="360" as="geometry" />
        </mxCell>
        <mxCell id="gxWAB4Jw25jX1D-k-lGQ-11" value="" style="html=1;points=[[0,0,0,0,5],[0,1,0,0,-5],[1,0,0,0,5],[1,1,0,0,-5]];perimeter=orthogonalPerimeter;outlineConnect=0;targetShapes=umlLifeline;portConstraint=eastwest;newEdgeStyle={&quot;curved&quot;:0,&quot;rounded&quot;:0};" parent="aM9ryv3xv72pqoxQDRHE-1" vertex="1">
          <mxGeometry x="55" y="70" width="10" height="50" as="geometry" />
        </mxCell>
        <mxCell id="gxWAB4Jw25jX1D-k-lGQ-16" value="" style="html=1;points=[[0,0,0,0,5],[0,1,0,0,-5],[1,0,0,0,5],[1,1,0,0,-5]];perimeter=orthogonalPerimeter;outlineConnect=0;targetShapes=umlLifeline;portConstraint=eastwest;newEdgeStyle={&quot;curved&quot;:0,&quot;rounded&quot;:0};" parent="aM9ryv3xv72pqoxQDRHE-1" vertex="1">
          <mxGeometry x="55" y="140" width="10" height="50" as="geometry" />
        </mxCell>
        <mxCell id="KfOky4rJ4pKzFVqt4jVn-1" value="Generate key K&lt;br&gt;E(F) = K + F" style="html=1;align=left;spacingLeft=2;endArrow=block;rounded=0;edgeStyle=orthogonalEdgeStyle;curved=0;rounded=0;exitX=1;exitY=0;exitDx=0;exitDy=5;exitPerimeter=0;entryX=1;entryY=1;entryDx=0;entryDy=-5;entryPerimeter=0;" parent="aM9ryv3xv72pqoxQDRHE-1" source="gxWAB4Jw25jX1D-k-lGQ-11" target="gxWAB4Jw25jX1D-k-lGQ-11" edge="1">
          <mxGeometry relative="1" as="geometry">
            <mxPoint x="80" y="80" as="sourcePoint" />
            <Array as="points">
              <mxPoint x="65" y="80" />
              <mxPoint x="90" y="80" />
              <mxPoint x="90" y="115" />
            </Array>
            <mxPoint x="80" y="115" as="targetPoint" />
          </mxGeometry>
        </mxCell>
        <mxCell id="aM9ryv3xv72pqoxQDRHE-5" value=":Client" style="shape=umlLifeline;perimeter=lifelinePerimeter;whiteSpace=wrap;html=1;container=0;dropTarget=0;collapsible=0;recursiveResize=0;outlineConnect=0;portConstraint=eastwest;newEdgeStyle={&quot;edgeStyle&quot;:&quot;elbowEdgeStyle&quot;,&quot;elbow&quot;:&quot;vertical&quot;,&quot;curved&quot;:0,&quot;rounded&quot;:0};" parent="1" vertex="1">
          <mxGeometry x="40" y="40" width="120" height="360" as="geometry" />
        </mxCell>
        <mxCell id="gxWAB4Jw25jX1D-k-lGQ-10" value="" style="html=1;points=[[0,0,0,0,5],[0,1,0,0,-5],[1,0,0,0,5],[1,1,0,0,-5]];perimeter=orthogonalPerimeter;outlineConnect=0;targetShapes=umlLifeline;portConstraint=eastwest;newEdgeStyle={&quot;curved&quot;:0,&quot;rounded&quot;:0};" parent="aM9ryv3xv72pqoxQDRHE-5" vertex="1">
          <mxGeometry x="55" y="60" width="10" height="100" as="geometry" />
        </mxCell>
        <mxCell id="gxWAB4Jw25jX1D-k-lGQ-1" value=":Verifiers&lt;br&gt;(blockchain)" style="shape=umlLifeline;perimeter=lifelinePerimeter;whiteSpace=wrap;html=1;container=0;dropTarget=0;collapsible=0;recursiveResize=0;outlineConnect=0;portConstraint=eastwest;newEdgeStyle={&quot;edgeStyle&quot;:&quot;elbowEdgeStyle&quot;,&quot;elbow&quot;:&quot;vertical&quot;,&quot;curved&quot;:0,&quot;rounded&quot;:0};" parent="1" vertex="1">
          <mxGeometry x="440" y="40" width="120" height="360" as="geometry" />
        </mxCell>
        <mxCell id="gxWAB4Jw25jX1D-k-lGQ-18" value="" style="html=1;points=[[0,0,0,0,5],[0,1,0,0,-5],[1,0,0,0,5],[1,1,0,0,-5]];perimeter=orthogonalPerimeter;outlineConnect=0;targetShapes=umlLifeline;portConstraint=eastwest;newEdgeStyle={&quot;curved&quot;:0,&quot;rounded&quot;:0};" parent="gxWAB4Jw25jX1D-k-lGQ-1" vertex="1">
          <mxGeometry x="55" y="180" width="10" height="50" as="geometry" />
        </mxCell>
        <mxCell id="gxWAB4Jw25jX1D-k-lGQ-20" value="Verify&lt;br&gt;HH(E(F)) = HH(K) + HH(F)" style="html=1;align=left;spacingLeft=2;endArrow=block;rounded=0;edgeStyle=orthogonalEdgeStyle;curved=0;rounded=0;exitX=1;exitY=0;exitDx=0;exitDy=5;exitPerimeter=0;" parent="gxWAB4Jw25jX1D-k-lGQ-1" edge="1">
          <mxGeometry relative="1" as="geometry">
            <mxPoint x="65" y="187.5" as="sourcePoint" />
            <Array as="points">
              <mxPoint x="90" y="187.5" />
              <mxPoint x="90" y="222.5" />
            </Array>
            <mxPoint x="65" y="222.5" as="targetPoint" />
          </mxGeometry>
        </mxCell>
        <mxCell id="gxWAB4Jw25jX1D-k-lGQ-25" value="" style="html=1;points=[[0,0,0,0,5],[0,1,0,0,-5],[1,0,0,0,5],[1,1,0,0,-5]];perimeter=orthogonalPerimeter;outlineConnect=0;targetShapes=umlLifeline;portConstraint=eastwest;newEdgeStyle={&quot;curved&quot;:0,&quot;rounded&quot;:0};" parent="gxWAB4Jw25jX1D-k-lGQ-1" vertex="1">
          <mxGeometry x="55" y="250" width="10" height="40" as="geometry" />
        </mxCell>
        <mxCell id="gxWAB4Jw25jX1D-k-lGQ-9" value="Download" style="html=1;verticalAlign=bottom;startArrow=oval;startFill=1;endArrow=block;startSize=8;curved=0;rounded=0;entryX=0;entryY=0;entryDx=0;entryDy=5;entryPerimeter=0;" parent="1" target="gxWAB4Jw25jX1D-k-lGQ-10" edge="1">
          <mxGeometry width="60" relative="1" as="geometry">
            <mxPoint x="30" y="105" as="sourcePoint" />
            <mxPoint x="90" y="110" as="targetPoint" />
          </mxGeometry>
        </mxCell>
        <mxCell id="gxWAB4Jw25jX1D-k-lGQ-12" value="Request encrypted file" style="html=1;verticalAlign=bottom;endArrow=block;curved=0;rounded=0;entryX=0;entryY=0;entryDx=0;entryDy=5;" parent="1" source="gxWAB4Jw25jX1D-k-lGQ-10" target="gxWAB4Jw25jX1D-k-lGQ-11" edge="1">
          <mxGeometry relative="1" as="geometry">
            <mxPoint x="220" y="115" as="sourcePoint" />
          </mxGeometry>
        </mxCell>
        <mxCell id="gxWAB4Jw25jX1D-k-lGQ-13" value="E(F)" style="html=1;verticalAlign=bottom;endArrow=open;dashed=1;endSize=8;curved=0;rounded=0;exitX=0;exitY=1;exitDx=0;exitDy=-5;" parent="1" source="gxWAB4Jw25jX1D-k-lGQ-11" target="gxWAB4Jw25jX1D-k-lGQ-10" edge="1">
          <mxGeometry relative="1" as="geometry">
            <mxPoint x="225" y="155" as="targetPoint" />
          </mxGeometry>
        </mxCell>
        <mxCell id="gxWAB4Jw25jX1D-k-lGQ-15" value="HH(E(F)), Sign(HH(E(F))" style="html=1;verticalAlign=bottom;endArrow=block;curved=0;rounded=0;entryX=0;entryY=0;entryDx=0;entryDy=5;entryPerimeter=0;" parent="1" source="gxWAB4Jw25jX1D-k-lGQ-10" target="gxWAB4Jw25jX1D-k-lGQ-16" edge="1">
          <mxGeometry width="80" relative="1" as="geometry">
            <mxPoint x="110" y="189.5" as="sourcePoint" />
            <mxPoint x="190" y="189.5" as="targetPoint" />
          </mxGeometry>
        </mxCell>
        <mxCell id="gxWAB4Jw25jX1D-k-lGQ-17" value="Sign(HH(E(F)), K" style="html=1;verticalAlign=bottom;endArrow=block;curved=0;rounded=0;entryX=0;entryY=0;entryDx=0;entryDy=5;entryPerimeter=0;" parent="1" source="gxWAB4Jw25jX1D-k-lGQ-16" target="gxWAB4Jw25jX1D-k-lGQ-18" edge="1">
          <mxGeometry width="80" relative="1" as="geometry">
            <mxPoint x="320" y="210" as="sourcePoint" />
            <mxPoint x="400" y="210" as="targetPoint" />
          </mxGeometry>
        </mxCell>
        <mxCell id="gxWAB4Jw25jX1D-k-lGQ-21" value="" style="line;strokeWidth=1;fillColor=none;align=left;verticalAlign=middle;spacingTop=-1;spacingLeft=3;spacingRight=3;rotatable=0;labelPosition=right;points=[];portConstraint=eastwest;strokeColor=inherit;dashed=1;" parent="1" vertex="1">
          <mxGeometry x="80" y="272" width="480" height="8" as="geometry" />
        </mxCell>
        <mxCell id="gxWAB4Jw25jX1D-k-lGQ-23" value="Block forgery" style="text;align=center;fontStyle=1;verticalAlign=middle;spacingLeft=3;spacingRight=3;strokeColor=none;rotatable=0;points=[[0,0.5],[1,0.5]];portConstraint=eastwest;html=1;" parent="1" vertex="1">
          <mxGeometry x="110" y="246" width="80" height="26" as="geometry" />
        </mxCell>
        <mxCell id="gxWAB4Jw25jX1D-k-lGQ-26" value="Request K" style="html=1;verticalAlign=bottom;endArrow=block;curved=0;rounded=0;entryX=0;entryY=0;entryDx=0;entryDy=5;exitX=1;exitY=0;exitDx=0;exitDy=5;exitPerimeter=0;" parent="1" source="gxWAB4Jw25jX1D-k-lGQ-28" target="gxWAB4Jw25jX1D-k-lGQ-25" edge="1">
          <mxGeometry relative="1" as="geometry">
            <mxPoint x="425" y="295" as="sourcePoint" />
          </mxGeometry>
        </mxCell>
        <mxCell id="gxWAB4Jw25jX1D-k-lGQ-28" value="" style="html=1;points=[[0,0,0,0,5],[0,1,0,0,-5],[1,0,0,0,5],[1,1,0,0,-5]];perimeter=orthogonalPerimeter;outlineConnect=0;targetShapes=umlLifeline;portConstraint=eastwest;newEdgeStyle={&quot;curved&quot;:0,&quot;rounded&quot;:0};" parent="1" vertex="1">
          <mxGeometry x="95" y="290" width="10" height="100" as="geometry" />
        </mxCell>
        <mxCell id="gxWAB4Jw25jX1D-k-lGQ-27" value="K" style="html=1;verticalAlign=bottom;endArrow=open;dashed=1;endSize=8;curved=0;rounded=0;exitX=0;exitY=1;exitDx=0;exitDy=-5;" parent="1" source="gxWAB4Jw25jX1D-k-lGQ-25" target="gxWAB4Jw25jX1D-k-lGQ-28" edge="1">
          <mxGeometry relative="1" as="geometry">
            <mxPoint x="425" y="365" as="targetPoint" />
          </mxGeometry>
        </mxCell>
        <mxCell id="gxWAB4Jw25jX1D-k-lGQ-30" value="Decrypt E(F) with key K" style="html=1;align=left;spacingLeft=2;endArrow=block;rounded=0;edgeStyle=orthogonalEdgeStyle;curved=0;rounded=0;" parent="1" edge="1">
          <mxGeometry relative="1" as="geometry">
            <mxPoint x="105" y="350" as="sourcePoint" />
            <Array as="points">
              <mxPoint x="130" y="350" />
              <mxPoint x="130" y="370" />
            </Array>
            <mxPoint x="105" y="370" as="targetPoint" />
          </mxGeometry>
        </mxCell>
        <mxCell id="cJj8H1c0cpS9XUpi6oeW-2" value="&lt;h1 style=&quot;margin-top: 0px;&quot;&gt;&lt;font style=&quot;font-size: 10px;&quot;&gt;Assumption:&lt;br&gt;HH(F) is publicly known&lt;/font&gt;&lt;/h1&gt;" style="text;html=1;whiteSpace=wrap;overflow=hidden;rounded=0;" vertex="1" parent="1">
          <mxGeometry x="530" y="110" width="120" height="80" as="geometry" />
        </mxCell>
      </root>
    </mxGraphModel>
  </diagram>
</mxfile>
